<?xml version="1.0" encoding="UTF-8" standalone="no"?><!DOCTYPE svg PUBLIC "-//W3C//DTD SVG 1.1//EN" "http://www.w3.org/Graphics/SVG/1.1/DTD/svg11.dtd"><svg width="100%" height="100%" viewBox="0 0 596 596" version="1.1" xmlns="http://www.w3.org/2000/svg" xmlns:xlink="http://www.w3.org/1999/xlink" xml:space="preserve" xmlns:serif="http://www.serif.com/" style="fill-rule:evenodd;clip-rule:evenodd;stroke-linejoin:round;stroke-miterlimit:2;"><g><path d="M285.732,16.893c-21.264,2.752 -38.426,12.784 -45.116,26.372c-17.905,36.371 31.857,85.995 98.555,98.282c13.847,2.551 37.505,2.283 48.885,-0.553c12.038,-3 20.447,-7.212 27.573,-13.81c7.983,-7.39 11.241,-14.108 11.837,-24.403c0.867,-14.965 -5.372,-28.345 -20.295,-43.53c-9.709,-9.88 -19.351,-17.085 -32,-23.915c-27.442,-14.816 -62.156,-21.974 -89.439,-18.443m-141.619,80.296c-23.529,3.853 -43.49,14.479 -62.035,33.024c-24.32,24.32 -36.53,53.75 -35.096,84.593c0.651,14.01 2.543,21.732 8.205,33.5c9.613,19.976 26.246,33.709 48.013,39.641c12.066,3.288 31.413,3.07 44.948,-0.505c39.555,-10.45 73.274,-44.575 84.232,-85.248c2.348,-8.711 2.67,-11.792 2.713,-25.888c0.041,-13.774 -0.27,-17.105 -2.237,-23.943c-9.585,-33.321 -36.282,-54.353 -71.124,-56.033c-5.536,-0.267 -12.953,0.095 -17.619,0.859m323.188,13.481c-1.509,1.576 -3.417,5.063 -4.24,7.75c-1.986,6.484 -1.941,24.311 0.091,35.886c8.948,50.978 41.984,113.722 66.085,125.511c7.995,3.911 13.672,2.203 17.697,-5.327c2.055,-3.844 2.233,-5.486 2.193,-20.184c-0.038,-13.821 -0.421,-17.634 -2.812,-28c-11.125,-48.24 -38.311,-99.428 -60.773,-114.428c-4.972,-3.32 -6.967,-4.072 -10.798,-4.072c-3.866,-0 -5.185,0.508 -7.443,2.864m64.791,216.068c-19.557,11.217 -49.651,61.448 -64.304,107.333c-5.452,17.069 -7.414,27.309 -7.52,39.235c-0.109,12.369 1.058,16.089 5.757,18.341c4.953,2.374 10.694,-0.668 21.204,-11.235c28.967,-29.121 61.363,-102.041 61.536,-138.511c0.081,-16.993 -5.165,-21.764 -16.673,-15.163m-423.921,12.112c-3.3,0.512 -9.15,1.873 -13,3.025c-22.07,6.603 -39.016,24.882 -44.052,47.519c-2.294,10.313 -1.56,29.695 1.531,40.412c11.397,39.517 47.14,73.637 88.727,84.698c12.644,3.363 34.819,3.875 45.294,1.047c19.276,-5.205 35.076,-17.662 42.798,-33.745c12.601,-26.242 8.252,-58.681 -11.887,-88.67c-6.819,-10.154 -24.243,-27.456 -34.411,-34.17c-14.059,-9.283 -28.615,-15.529 -43.479,-18.656c-9.161,-1.927 -24.059,-2.617 -31.521,-1.46m243.269,137.076c-26.302,3.387 -57.28,14.671 -77.695,28.299c-18.279,12.203 -28.964,24.112 -33.193,36.993c-2.004,6.104 -2.119,7.424 -1.078,12.382c3.603,17.179 22.025,26.32 53.197,26.396c15.742,0.039 26.028,-1.241 41.623,-5.179c30.526,-7.71 55.51,-20.537 73.392,-37.68c18.876,-18.097 22.821,-34.512 11.357,-47.263c-8.97,-9.976 -25.684,-15.134 -48.372,-14.928c-6.875,0.062 -15.529,0.503 -19.231,0.98" style="fill:#fffcfc;"/></g></svg>